<svg id="SvgjsSvg1001" width="288" height="288" xmlns="http://www.w3.org/2000/svg" version="1.1" xmlns:xlink="http://www.w3.org/1999/xlink" xmlns:svgjs="http://svgjs.com/svgjs"><rect id="SvgjsRect1012" width="288" height="288" rx="20" ry="20" fill="#e4f2f5" transform="matrix(0.7700000405311584,0,0,0.7700000405311584,33.1199951171875,33.1199951171875)"></rect><defs id="SvgjsDefs1002"></defs><g id="SvgjsG1008" transform="matrix(0.7200000286102295,0,0,0.7200000286102295,40.40670394897461,40.39659118652344)"><svg xmlns="http://www.w3.org/2000/svg" width="288" height="288" version="1.0" viewBox="0 0 465 99"><g transform="matrix(.1 0 0 -.1 0 99)" fill="#303a52" class="color000 svgShape"><path d="M1011 953c-20-17-371-898-371-931 0-12 9-13 43-8 23 4 51 13 62 20 16 11 221 519 371 919 5 15 0 17-39 17-28 0-53-7-66-17zM1430 932c-85-22-144-58-204-121-117-126-145-319-74-508 30-81 130-181 213-213 50-20 78-24 170-24 131 0 196 21 269 85l46 41-32 38c-18 21-41 39-50 39-9 1-39-13-67-31-42-25-64-32-126-36-126-8-218 44-266 151-20 43-24 68-24 152 0 90 3 106 29 158 69 141 243 189 395 109 34-18 63-32 65-32 3 0 22 21 43 46l38 47-39 33c-85 74-253 103-386 66zM1898 944c-5-8 45-172 232-776l31-98 73 0 73 0 52 163c29 89 76 233 104 321l51 158 32-98c18-55 65-199 104-322l71-222 73 0 73 0 131 424c73 234 132 433 132 442 0 15-9 16-71 12-44-4-76-11-86-21-15-14-173-554-173-589 0-10-4-18-10-18-5 0-10 6-10 13 0 8-43 145-95 306-67 204-101 294-113 299-34 13-105 6-118-13-7-10-54-144-104-299-50-155-95-290-100-301-8-19-9-19-9-1-2 38-162 591-176 605-16 16-159 29-167 15zM3500 932c-122-32-218-109-270-217-107-221-24-501 180-605 138-70 360-63 498 16l42 25 0 179 0 180-145 0-145 0 0-48c0-26 5-53 12-60 7-7 39-12 75-12l63 0 0-81 0-80-37-16c-59-25-171-29-233-8-68 23-131 80-161 148-20 43-24 69-24 152 0 89 3 106 28 157 53 108 141 154 278 146 63-4 90-11 139-36 33-18 67-32 75-32 8 0 28 21 45 46 31 44 31 46 14 65-26 29-131 77-193 89-77 14-166 11-241-8zM260 630c-220-116-225-119-228-152-3-32 0-35 60-65 35-18 141-73 236-123l173-91-3 67-3 68-141 72-140 73 125 61c69 34 134 69 144 77 12 12 17 32 17 75 0 32-3 58-7 58-5-1-109-54-233-120zM4160 686l0-65 143-72 143-71-141-71-140-72-3-68-3-68 173 91c95 50 201 105 236 123 60 30 63 33 60 65-3 33-7 36-223 149-121 64-226 118-232 120-10 4-13-12-13-61z" fill="#303a52" class="color000 svgShape"></path></g></svg></g></svg>