<?xml version="1.0" standalone="no"?>
<!DOCTYPE svg PUBLIC "-//W3C//DTD SVG 20010904//EN"
 "http://www.w3.org/TR/2001/REC-SVG-20010904/DTD/svg10.dtd">
<svg version="1.0" xmlns="http://www.w3.org/2000/svg"
 width="1280.000000pt" height="699.000000pt" viewBox="0 0 1280.000000 699.000000"
 preserveAspectRatio="xMidYMid meet">
<metadata>
Created by potrace 1.15, written by Peter Selinger 2001-2017
</metadata>
<g transform="translate(0.000000,699.000000) scale(0.100000,-0.100000)"
fill="#3f51b5" stroke="none">
<path d="M5764 6938 c-43 -79 -82 -168 -89 -209 -9 -49 16 -60 51 -22 32 35
81 137 95 201 22 94 -12 111 -57 30z"/>
<path d="M3001 6959 c-259 -30 -447 -140 -523 -306 -28 -60 -31 -79 -31 -154
0 -75 4 -94 30 -151 17 -36 47 -83 67 -105 40 -45 132 -98 189 -108 33 -6 37
-10 31 -29 -27 -87 -72 -136 -136 -146 l-43 -7 30 -12 c42 -18 141 -8 194 18
53 28 121 94 143 142 17 35 19 36 90 42 248 21 444 133 522 296 28 59 31 75
31 156 -1 77 -5 98 -28 145 -41 86 -89 135 -170 175 -106 51 -220 64 -396 44z
m265 -50 c285 -53 379 -359 173 -560 -93 -91 -245 -145 -458 -164 -87 -8 -113
-24 -76 -51 17 -13 17 -15 -9 -53 -29 -41 -82 -83 -129 -100 -41 -16 -43 -14
-18 13 13 13 33 53 46 89 25 67 21 87 -17 87 -40 0 -130 44 -177 86 -74 67
-106 138 -106 239 0 70 4 88 32 145 69 140 221 232 438 266 103 16 225 17 301
3z"/>
<path d="M3100 6758 c-35 -18 -51 -35 -70 -75 l-26 -52 -19 35 c-10 20 -34 49
-52 65 -44 38 -84 39 -113 2 -19 -24 -21 -37 -18 -93 8 -108 71 -206 194 -300
l57 -44 26 31 c30 37 166 296 175 335 19 83 -70 138 -154 96z m94 -47 c23 -25
19 -37 -61 -191 -95 -181 -78 -171 -159 -96 -75 69 -118 137 -129 203 -20 124
60 111 128 -21 25 -49 32 -57 35 -38 2 12 8 22 13 22 5 0 20 22 34 49 41 83
101 114 139 72z"/>
<path d="M10101 6941 c-29 -10 -65 -27 -80 -38 -47 -35 -89 -100 -101 -156
l-11 -54 -93 28 c-163 48 -288 64 -516 63 -172 0 -223 -3 -318 -22 -140 -28
-275 -72 -369 -121 l-72 -38 -32 35 c-84 88 -194 79 -239 -21 -25 -54 -25
-111 0 -166 l20 -44 -38 -41 c-20 -22 -50 -58 -66 -79 l-28 -37 -20 40 c-49
99 -212 169 -394 170 -86 0 -150 -11 -229 -41 -220 -82 -377 -494 -287 -751
77 -219 327 -386 564 -376 l78 3 0 -35 c0 -69 30 -234 46 -251 13 -14 26 -16
69 -12 71 7 108 -13 103 -59 -5 -53 -43 -71 -151 -76 -74 -2 -99 0 -126 15
-48 25 -73 63 -78 120 -4 40 0 55 22 89 15 22 45 52 66 65 34 21 50 39 34 39
-15 0 -81 -33 -98 -48 -50 -45 -71 -143 -46 -209 27 -71 100 -112 200 -113
l65 0 44 -62 c24 -35 68 -88 97 -119 l54 -57 -12 -87 c-6 -49 -9 -108 -6 -132
4 -39 3 -43 -14 -38 -10 4 -24 3 -31 -1 -7 -5 -34 -8 -60 -9 -46 0 -48 1 -48
28 0 41 -24 44 -58 6 l-29 -33 -7 62 c-11 101 -38 94 -82 -21 -15 -40 -31 -76
-35 -81 -4 -4 -25 -5 -46 -2 -38 7 -39 9 -54 67 l-16 60 48 21 c54 22 115 83
125 123 10 40 -4 89 -34 117 -15 14 -79 47 -143 72 -172 68 -226 63 -308 -30
-86 -98 -129 -231 -98 -305 13 -32 20 -37 62 -42 26 -4 76 -7 110 -7 57 0 63
-2 73 -25 7 -14 12 -36 12 -48 1 -22 1 -22 16 -2 10 13 14 32 10 52 -5 38 -3
40 50 49 40 6 40 6 62 -43 12 -27 22 -55 22 -61 0 -14 17 -18 130 -31 50 -6
118 -7 165 -2 44 4 96 4 115 0 64 -15 78 -5 43 33 -26 29 -12 29 53 3 67 -28
104 -32 104 -11 0 8 -10 18 -22 21 -25 8 -68 44 -68 57 0 17 28 7 70 -24 24
-18 61 -43 83 -56 l39 -24 54 22 c30 12 54 25 54 29 0 3 -9 12 -20 19 -11 7
-20 17 -20 23 0 20 68 2 117 -30 44 -29 83 -40 83 -23 0 4 -17 18 -38 31 -35
21 -38 26 -28 47 6 13 15 24 20 24 5 0 30 -22 55 -50 25 -27 52 -50 59 -50 18
0 15 9 -14 47 -14 18 -24 41 -22 51 3 12 11 6 31 -25 29 -45 55 -54 78 -27 11
13 10 17 -4 25 -35 20 -65 119 -35 119 28 0 79 -54 108 -117 44 -95 61 -108
135 -107 33 1 67 4 75 7 8 3 51 8 95 11 109 8 130 16 158 54 27 36 37 28 37
-29 0 -37 19 -38 26 0 5 22 10 27 25 24 15 -4 114 20 174 43 12 5 15 -1 15
-27 0 -68 17 -65 40 7 22 70 77 175 95 181 6 2 10 -23 10 -59 0 -52 3 -63 18
-66 11 -2 21 6 30 26 15 36 60 102 69 102 12 0 -12 -64 -42 -114 -31 -49 -33
-83 -5 -72 17 6 21 -9 5 -19 -5 -3 -10 -13 -10 -21 0 -11 11 -14 43 -12 34 2
42 0 42 -14 0 -10 5 -22 12 -29 8 -8 14 -6 22 10 13 23 2 54 -24 68 -12 7 -6
18 31 53 28 28 42 36 35 23 -17 -34 -5 -28 51 22 78 70 93 58 28 -24 -22 -28
-40 -55 -40 -61 0 -16 23 -11 50 10 41 32 88 19 59 -16 -8 -9 -9 -18 -3 -24
14 -14 54 17 54 41 0 19 -27 53 -49 60 -8 3 -5 17 9 44 36 70 25 84 -40 53
-52 -25 -83 -31 -73 -14 66 113 323 385 323 340 0 -9 -51 -69 -112 -133 -62
-64 -131 -137 -153 -162 -22 -25 29 24 114 110 84 86 157 166 162 178 10 26 2
53 -14 53 -11 0 -197 -184 -257 -256 -19 -22 -32 -36 -29 -30 33 54 169 309
169 316 0 17 -39 21 -68 6 -34 -18 -98 -114 -153 -231 -40 -83 -49 -84 -24 -3
8 29 10 50 4 53 -16 11 -28 -4 -50 -65 -12 -34 -28 -60 -36 -60 -7 0 -34 -19
-58 -41 l-45 -42 0 41 c0 49 -12 59 -45 38 -30 -20 -35 -20 -35 -2 0 21 -48
74 -84 93 -54 29 -168 22 -356 -22 -148 -35 -179 -39 -304 -39 l-140 -1 5 55
c2 30 4 126 4 213 0 136 2 156 15 151 129 -54 308 -47 418 17 l32 19 59 -58
c121 -119 273 -182 440 -182 150 0 258 41 386 146 106 86 215 273 262 450 24
90 26 116 27 289 0 141 -4 208 -16 260 -18 79 -16 94 6 42 17 -43 48 -55 81
-33 37 24 43 62 20 119 -7 17 -5 17 26 -2 74 -45 149 -11 149 68 0 53 -39 97
-127 147 -80 44 -99 80 -108 204 -8 114 -22 173 -56 246 -67 142 -222 214
-358 165z m155 -36 c91 -27 163 -110 193 -223 7 -23 16 -92 21 -153 14 -154
33 -187 137 -246 95 -52 132 -117 84 -143 -34 -18 -53 -11 -98 35 -23 25 -47
45 -53 45 -20 0 -22 -53 -5 -111 17 -55 17 -61 2 -76 -15 -15 -17 -15 -22 3
-12 38 -22 49 -48 52 -21 3 -29 12 -43 55 -9 29 -38 94 -64 145 -27 50 -44 92
-39 92 16 0 9 94 -11 138 -23 50 -47 53 -68 10 -10 -22 -10 -32 -1 -50 7 -13
-18 5 -54 39 -62 58 -171 130 -231 153 -31 11 -30 7 -11 61 32 89 97 155 176
178 49 14 79 13 135 -4z m-636 -190 c350 -58 576 -207 700 -459 83 -169 120
-332 120 -530 0 -432 -218 -766 -543 -832 -130 -27 -268 4 -396 86 -74 48
-152 126 -145 144 11 29 -18 25 -89 -13 -191 -100 -394 -64 -557 99 -92 91
-115 150 -106 272 26 351 222 598 540 678 44 11 111 20 150 20 56 0 67 2 57
13 -8 8 -44 12 -109 11 -172 -2 -327 -69 -458 -199 -87 -86 -143 -179 -185
-307 l-32 -98 -54 93 c-29 50 -58 107 -64 126 -18 53 -5 193 25 288 25 78 30
86 96 142 178 154 377 250 595 287 134 24 332 15 448 -20 95 -28 173 -64 225
-103 29 -22 32 -29 32 -76 0 -64 -13 -112 -52 -195 -42 -89 -46 -131 -16 -166
29 -34 64 -29 74 10 13 53 40 19 56 -70 2 -10 15 -28 29 -38 35 -26 63 -12 79
39 16 50 30 64 30 31 0 -29 23 -58 45 -58 8 0 16 -8 19 -17 13 -47 16 -197 6
-278 -25 -206 -88 -317 -210 -374 -46 -21 -69 -26 -140 -25 -52 0 -109 7 -149
19 l-63 18 6 111 c8 129 18 211 51 431 30 193 40 319 31 370 -15 78 -120 155
-212 155 -39 0 -81 -33 -90 -72 -8 -37 9 -36 23 2 13 34 45 46 99 35 44 -8
119 -74 134 -119 13 -39 2 -149 -40 -426 -16 -107 -34 -255 -40 -329 -5 -73
-15 -140 -21 -147 -19 -24 -3 -40 63 -61 207 -69 366 -46 475 68 93 98 133
233 134 451 0 355 -84 569 -285 723 -147 112 -302 164 -511 172 -211 8 -395
-32 -580 -125 -336 -168 -563 -450 -653 -812 -34 -137 -38 -350 -8 -474 70
-300 250 -493 541 -582 82 -25 104 -28 255 -28 145 0 180 3 285 27 293 68 349
70 408 17 27 -24 32 -36 32 -72 0 -78 -65 -140 -184 -173 -95 -27 -99 -27
-103 -3 -5 34 -25 32 -50 -5 -21 -33 -28 -36 -98 -46 -41 -7 -129 -14 -196
-18 l-121 -6 -6 29 c-12 57 -69 136 -119 163 -58 32 -74 22 -71 -46 1 -34 -1
-43 -10 -34 -18 18 -48 13 -54 -10 -4 -14 -10 -18 -22 -13 -9 4 -32 8 -53 10
-41 3 -175 68 -263 127 -77 52 -186 156 -241 231 -24 32 -44 62 -44 66 0 4 14
13 31 20 17 8 40 27 50 44 52 85 -10 166 -125 166 -29 0 -46 5 -50 15 -16 43
-28 204 -23 320 15 358 152 708 374 958 29 33 33 35 65 25 41 -12 103 2 143
34 33 26 55 75 55 123 0 33 3 36 72 71 132 66 307 114 508 138 73 9 389 -4
480 -19z m-1172 -82 c64 -40 82 -140 35 -185 -42 -40 -73 -44 -132 -17 -49 23
-50 25 -57 76 -14 116 65 182 154 126z m-571 -239 c124 -25 195 -70 234 -146
l19 -37 -30 -49 c-45 -74 -115 -227 -145 -320 -20 -60 -49 -114 -106 -199 -43
-64 -80 -121 -82 -127 -6 -18 -57 15 -73 47 -26 49 -10 81 95 191 53 55 116
126 138 156 43 58 98 158 90 166 -2 2 -36 -37 -74 -89 -39 -51 -118 -141 -176
-199 -83 -83 -108 -116 -117 -148 -24 -89 21 -150 144 -195 l76 -28 0 -38 0
-39 -62 0 c-161 1 -295 56 -409 170 -86 86 -125 155 -142 254 -29 170 65 445
189 555 91 80 263 110 431 75z m2102 -107 c77 -94 109 -167 146 -330 4 -21 2
-28 -7 -25 -7 3 -13 20 -13 39 0 29 -4 34 -26 37 -30 4 -46 -13 -64 -65 -7
-21 -20 -39 -28 -41 -16 -3 -21 8 -32 70 -11 68 -69 92 -101 43 -39 -60 -47
23 -9 103 34 74 55 148 55 199 0 55 14 50 79 -30z m-1565 -254 c-18 -75 -18
-178 0 -237 8 -25 35 -80 60 -120 68 -109 78 -140 80 -237 1 -72 6 -94 31
-144 32 -66 138 -178 198 -210 23 -12 35 -25 32 -33 -3 -8 -5 -67 -5 -132 l0
-119 -27 -13 c-16 -8 -40 -22 -55 -32 -28 -18 -28 -18 -28 6 0 17 8 29 25 36
14 6 25 16 25 22 0 7 -6 8 -19 0 -31 -16 -38 -12 -45 23 -10 55 -32 77 -77 77
-50 0 -141 -32 -184 -64 l-32 -25 -25 27 c-14 15 -34 41 -46 58 l-21 31 71 6
c39 3 77 12 85 19 22 23 59 203 47 235 -5 15 -39 50 -79 80 -83 63 -157 142
-150 161 10 26 -24 83 -55 95 -28 11 -30 14 -24 47 25 138 113 348 189 453 20
26 37 47 39 47 2 0 -3 -26 -10 -57z m-526 -481 c-12 -80 -12 -81 -37 -75 -77
18 -77 16 -14 92 32 38 59 68 60 67 2 -1 -3 -39 -9 -84z m342 -98 c0 -20 -25
-44 -44 -44 -8 0 -7 85 1 93 11 12 43 -25 43 -49z m22 -181 c-13 -60 -26 -115
-29 -123 -8 -20 -29 72 -38 160 -7 70 -7 70 18 70 13 0 30 7 38 16 12 14 14
14 24 0 9 -12 6 -40 -13 -123z m69 -69 c-32 -90 -44 -172 -26 -174 6 -1 24 53
40 120 17 67 35 120 40 119 6 -1 18 -7 29 -14 17 -13 17 -17 -14 -109 -17 -52
-32 -109 -32 -126 -1 -30 -2 -31 -42 -28 -36 3 -43 7 -59 41 -18 37 -18 40 3
150 12 61 24 125 27 141 l5 28 30 -30 30 -30 -31 -88z m145 -9 c6 -24 -19
-158 -34 -182 -4 -6 -19 -14 -33 -18 l-26 -6 24 73 c12 40 27 92 33 116 12 47
27 54 36 17z m173 -322 c9 -18 31 -145 31 -182 0 -12 -6 -21 -12 -21 -25 0
-144 62 -197 102 l-54 41 49 25 c98 51 167 63 183 35z m1497 -95 c-30 -57 -82
-164 -116 -238 -62 -134 -90 -181 -90 -149 0 8 4 19 8 25 5 5 21 45 37 89 32
93 122 275 165 334 54 74 52 43 -4 -61z m-1326 -23 c0 -9 -21 -25 -47 -37 -27
-12 -51 -24 -55 -26 -5 -2 -8 3 -8 12 0 9 21 27 48 40 56 30 62 31 62 11z
m-1202 -47 c47 -18 51 -22 46 -44 -9 -34 20 -74 52 -74 14 0 38 7 53 15 34 17
41 12 41 -30 0 -40 -25 -73 -79 -103 -35 -20 -42 -21 -47 -8 -3 8 -21 20 -40
26 -42 14 -99 -2 -115 -32 -10 -19 -9 -20 12 -14 69 19 79 19 79 -1 0 -17 -12
-23 -77 -36 -43 -9 -98 -19 -123 -23 -25 -3 -55 -7 -67 -10 -17 -3 -24 3 -33
32 -17 50 -6 112 30 185 33 64 47 69 69 25 12 -25 11 -31 -6 -55 -13 -16 -31
-27 -52 -29 -43 -4 -29 -22 18 -22 78 0 114 100 56 155 l-26 23 28 20 c51 36
84 36 181 0z m1192 -30 c0 -7 -12 -14 -27 -15 -16 0 -41 -4 -58 -8 -46 -12
-20 8 28 21 58 16 57 16 57 2z m-1056 -28 c5 -5 -3 -12 -19 -16 -26 -6 -44 6
-45 30 0 10 51 -1 64 -14z m516 -145 c0 -8 -62 -37 -67 -31 -14 14 9 36 37 36
16 0 30 -2 30 -5z m35 -44 c-3 -6 -16 -11 -28 -11 -12 0 -35 -7 -50 -15 -17
-8 -27 -10 -25 -4 3 10 98 48 107 43 1 -2 0 -7 -4 -13z m150 -65 c89 -44 89
-44 42 -39 -45 5 -47 5 -47 -20 0 -14 5 -29 10 -32 6 -3 10 -10 10 -16 0 -5
-9 -4 -20 3 -15 10 -22 10 -32 0 -14 -14 -58 -16 -58 -3 0 4 -12 20 -26 34
-19 20 -23 30 -16 44 5 10 12 35 16 56 6 30 10 36 20 28 7 -6 52 -30 101 -55z
m1455 19 c0 -8 -4 -15 -10 -15 -5 0 -7 7 -4 15 4 8 8 15 10 15 2 0 4 -7 4 -15z
m-1620 -9 c0 -17 -29 -25 -55 -16 -21 8 -14 13 30 23 11 3 21 5 23 6 1 0 2 -5
2 -13z m481 -53 c13 -16 12 -17 -3 -4 -10 7 -18 15 -18 17 0 8 8 3 21 -13z
m-891 -48 c0 -43 -1 -45 -30 -45 -16 0 -30 2 -30 5 0 7 52 85 56 85 2 0 4 -20
4 -45z m87 -17 c-2 -12 -13 -25 -25 -29 -28 -11 -28 -1 0 28 27 28 29 29 25 1z"/>
<path d="M10274 6695 c-4 -9 0 -23 9 -32 21 -21 49 -9 45 19 -4 28 -45 38 -54
13z"/>
<path d="M10143 6674 c-9 -23 13 -40 32 -24 12 10 13 16 4 26 -15 18 -28 18
-36 -2z"/>
<path d="M9582 6378 c-29 -29 3 -82 36 -61 23 14 26 38 7 57 -20 19 -27 20
-43 4z"/>
<path d="M9697 6333 c-13 -12 -7 -23 13 -23 11 0 20 7 20 15 0 15 -21 21 -33
8z"/>
<path d="M9470 6192 c0 -5 12 -19 26 -33 14 -13 32 -36 40 -51 16 -30 44 -38
44 -13 0 25 -29 63 -65 85 -35 22 -45 24 -45 12z"/>
<path d="M9480 6080 c0 -20 25 -38 36 -27 7 6 -18 47 -28 47 -5 0 -8 -9 -8
-20z"/>
<path d="M9213 6010 c-76 -16 -155 -62 -223 -130 -79 -80 -132 -168 -167 -278
-47 -151 -19 -226 110 -291 147 -74 361 -42 381 57 13 61 47 402 50 503 3 94
1 111 -15 125 -22 19 -80 26 -136 14z m117 -83 c0 -23 -13 -154 -29 -291 -16
-137 -27 -254 -25 -261 3 -6 -15 -22 -38 -35 -61 -35 -198 -35 -276 -1 -57 26
-108 76 -118 118 -21 83 59 274 161 382 74 78 139 117 228 135 80 17 97 9 97
-47z"/>
<path d="M8753 5419 c4 -13 7 -30 7 -36 0 -7 4 -13 8 -13 12 0 2 59 -11 67 -6
4 -8 -2 -4 -18z"/>
<path d="M9466 5270 c-16 -98 -13 -120 22 -152 20 -17 43 -28 62 -28 40 0 38
18 -3 35 -55 23 -66 43 -69 125 l-3 75 -9 -55z"/>
<path d="M7806 6167 c-23 -17 -19 -85 6 -101 22 -13 54 15 63 55 11 50 -28 76
-69 46z"/>
<path d="M7551 5972 c-26 -23 -35 -72 -17 -97 12 -16 17 -18 40 -7 28 12 42
49 32 86 -8 32 -30 39 -55 18z"/>
<path d="M7530 4655 c-13 -16 -7 -45 9 -45 6 0 15 9 20 19 14 26 -10 48 -29
26z"/>
<path d="M5941 6795 c-22 -25 -31 -46 -31 -70 0 -19 2 -35 5 -35 3 0 16 18 30
40 33 52 69 70 92 47 15 -14 15 -18 0 -40 -9 -14 -62 -62 -119 -107 -117 -94
-127 -106 -105 -127 14 -14 19 -14 46 3 57 37 214 188 227 220 24 58 -7 104
-72 104 -36 0 -47 -5 -73 -35z"/>
<path d="M5580 6575 c-22 -23 -22 -27 -8 -41 29 -29 83 21 57 52 -16 19 -22
18 -49 -11z"/>
<path d="M4760 6574 c-325 -70 -530 -315 -580 -693 -17 -130 1 -232 67 -367
64 -132 175 -246 268 -277 l40 -14 6 -199 c9 -280 45 -472 108 -578 30 -51 36
-71 39 -131 3 -58 0 -80 -17 -113 -43 -84 -20 -132 63 -132 136 0 253 161 206
284 -9 26 -9 26 43 26 28 0 62 3 75 7 23 6 23 4 17 -39 -17 -116 67 -227 195
-258 104 -25 131 10 84 113 -39 87 -40 182 -1 251 23 41 27 60 27 125 0 122
-40 685 -50 695 -4 4 16 28 46 52 86 70 122 113 164 199 61 122 75 187 74 345
-1 166 -21 247 -99 406 -43 89 -65 121 -110 162 -69 64 -175 115 -277 136 -95
20 -298 20 -388 0z m437 -58 c96 -31 193 -93 235 -150 49 -66 116 -215 138
-306 27 -115 27 -278 0 -384 -42 -165 -146 -296 -294 -371 -44 -22 -81 -46
-84 -52 -7 -24 30 -26 73 -5 l43 21 6 -57 c3 -31 11 -119 16 -195 10 -128 9
-139 -8 -165 -11 -15 -41 -63 -67 -107 -59 -98 -149 -227 -170 -245 -13 -11
-15 -7 -15 26 0 53 39 190 105 372 58 161 62 176 43 170 -7 -3 -26 -37 -42
-76 -17 -40 -32 -72 -35 -71 -3 0 -24 38 -46 84 -35 71 -39 86 -28 101 31 42
-1 126 -42 111 -19 -8 -19 -21 0 -37 19 -16 19 -54 1 -69 -20 -17 -67 -10 -80
11 -8 13 -7 26 2 50 15 40 6 50 -19 19 -25 -30 -24 -72 2 -99 19 -22 20 -25 5
-70 -32 -97 -35 -130 -16 -147 17 -15 22 -12 83 49 l66 66 12 -37 12 -37 -64
-58 c-35 -32 -66 -58 -70 -58 -3 0 -25 28 -49 63 -87 123 -142 187 -161 187
-35 0 -20 -36 56 -131 110 -136 213 -293 221 -334 4 -21 2 -47 -5 -61 -10 -22
-14 -23 -33 -13 -68 35 -201 165 -309 302 -86 108 -80 88 -96 307 l-8 104 -58
40 c-133 91 -243 243 -282 391 -33 125 -13 318 46 461 98 235 265 372 514 420
112 22 301 12 402 -20z m-144 -1478 c5 -30 0 -39 -49 -87 -30 -29 -57 -51 -59
-49 -3 3 3 39 12 81 19 80 16 77 79 86 7 0 14 -14 17 -31z m67 -185 c0 -7 -5
-13 -11 -13 -7 0 -36 -21 -66 -47 -78 -66 -84 -39 -8 41 52 56 62 62 73 48 6
-9 12 -22 12 -29z m-321 -234 c104 -104 162 -146 213 -159 18 -4 40 -11 50
-15 28 -11 92 58 191 207 l92 138 11 -120 c7 -66 15 -131 18 -145 5 -20 0 -32
-23 -56 -57 -57 -62 -189 -11 -288 25 -50 25 -51 -1 -51 -79 0 -168 64 -190
138 -10 35 -10 53 0 90 16 63 0 77 -79 66 -30 -4 -80 -10 -110 -13 -61 -7 -57
5 -44 -107 6 -52 -8 -96 -45 -138 -39 -45 -145 -74 -157 -43 -2 7 4 33 15 58
42 91 20 237 -42 286 -17 13 -23 24 -17 33 4 7 2 30 -6 53 -18 51 -54 226 -54
263 0 25 4 22 46 -36 26 -36 90 -108 143 -161z m285 131 c-14 -41 -27 -81 -30
-89 -3 -9 -12 -2 -24 22 -19 36 -19 38 -2 55 10 10 31 35 46 55 16 21 30 36
32 35 1 -2 -9 -37 -22 -78z"/>
<path d="M4654 6062 c-26 -18 -44 -60 -44 -104 0 -57 17 -98 41 -98 25 0 32
16 19 41 -10 17 -8 23 8 35 27 19 37 67 20 100 -14 30 -27 38 -44 26z m11
-102 c-4 -12 -9 -19 -12 -17 -3 3 -2 15 2 27 4 12 9 19 12 17 3 -3 2 -15 -2
-27z"/>
<path d="M5052 6038 c-37 -61 -30 -118 17 -138 47 -19 95 9 74 43 -4 7 -6 24
-4 39 2 28 -14 67 -33 80 -21 14 -34 8 -54 -24z m48 -68 c0 -5 -4 -10 -10 -10
-5 0 -10 5 -10 10 0 6 5 10 10 10 6 0 10 -4 10 -10z"/>
<path d="M4851 5604 c-11 -14 -23 -49 -27 -81 -6 -51 -5 -57 20 -81 39 -40 98
-37 137 6 63 70 19 181 -73 182 -27 0 -42 -6 -57 -26z m87 -46 c7 -7 12 -26
12 -43 0 -37 -15 -55 -46 -55 -33 0 -38 17 -9 24 25 6 34 30 15 41 -15 9 -12
45 3 45 7 0 18 -5 25 -12z"/>
<path d="M6095 6426 c-114 -41 -157 -64 -152 -79 5 -17 36 -11 162 31 91 31
110 40 110 57 0 29 -20 28 -120 -9z"/>
<path d="M5713 6394 c-3 -8 -1 -20 6 -27 14 -14 47 15 37 32 -10 16 -36 13
-43 -5z"/>
<path d="M5790 6256 c0 -8 5 -18 10 -21 13 -8 42 14 34 26 -9 15 -44 10 -44
-5z"/>
<path d="M1782 6249 c-165 -22 -307 -92 -428 -213 -124 -124 -176 -232 -193
-402 -26 -255 59 -430 255 -520 73 -34 164 -55 164 -38 0 5 -44 30 -99 56
-190 90 -272 216 -271 417 3 367 290 643 670 643 262 0 479 -131 567 -343 20
-50 27 -86 31 -164 5 -117 -7 -186 -48 -273 -40 -85 -72 -125 -152 -189 -66
-53 -82 -78 -54 -89 42 -16 149 62 217 160 126 178 142 427 42 628 -113 226
-410 364 -701 327z"/>
<path d="M2133 5900 c-66 -15 -148 -78 -129 -98 3 -2 36 5 73 16 37 11 85 24
106 27 44 7 59 31 32 51 -20 15 -34 16 -82 4z"/>
<path d="M1590 5791 c-38 -20 -63 -46 -73 -73 -8 -23 -10 -23 65 12 42 20 79
30 110 30 50 0 67 12 48 35 -18 21 -107 18 -150 -4z"/>
<path d="M2243 5696 c-17 -8 -59 -39 -92 -70 -69 -63 -154 -109 -244 -132 -91
-24 -232 -15 -316 20 -78 32 -104 33 -131 4 -55 -60 7 -164 117 -196 66 -20
251 -34 340 -27 98 8 219 48 294 98 143 95 210 225 146 285 -30 28 -74 35
-114 18z m82 -57 c4 -5 4 -22 0 -36 l-6 -26 -25 34 c-13 18 -24 34 -24 36 0 8
50 2 55 -8z m-52 -66 c26 -29 16 -39 -22 -23 -47 19 -57 37 -35 61 17 19 18
19 27 2 5 -10 19 -28 30 -40z m-33 -65 c13 -4 13 -7 2 -21 -12 -14 -18 -12
-58 14 -48 33 -53 43 -27 57 13 8 23 3 42 -17 14 -15 33 -30 41 -33z m-59 -58
c10 -1 8 -5 -5 -15 -16 -12 -23 -12 -45 -1 -14 8 -35 24 -46 36 -19 21 -19 22
-1 35 16 12 22 10 51 -21 18 -18 39 -34 46 -34z m-638 33 c2 -5 -2 -24 -10
-43 -14 -33 -16 -34 -29 -15 -15 20 -18 47 -7 58 9 9 41 9 46 0z m497 -13 c0
-5 14 -25 30 -44 l30 -34 -30 -10 c-28 -10 -31 -9 -59 32 l-30 43 22 11 c28
14 37 14 37 2z m-438 -51 c-4 -52 -7 -56 -25 -40 -21 17 -7 96 16 88 8 -3 11
-19 9 -48z m371 -11 c13 -33 14 -43 5 -50 -24 -14 -46 -8 -51 15 -3 12 -8 32
-12 44 -7 20 -2 24 35 32 3 0 13 -18 23 -41z m-293 22 c4 0 5 -15 1 -32 -5
-22 -13 -34 -27 -36 -17 -2 -19 2 -16 38 3 31 8 40 19 36 8 -3 18 -6 23 -6z
m200 -9 c0 -5 3 -23 6 -40 6 -30 5 -31 -27 -31 -33 0 -34 2 -36 40 -2 38 -1
40 27 40 17 0 30 -4 30 -9z m-94 -36 l11 -35 -38 0 c-38 0 -39 1 -39 35 0 32
3 35 28 35 22 0 29 -6 38 -35z"/>
<path d="M10814 5700 c-119 -27 -271 -227 -309 -406 -14 -68 -11 -84 17 -91 7
-1 45 -8 84 -14 l72 -12 -33 -61 c-58 -108 -55 -151 8 -96 40 35 46 37 42 13
-2 -10 -9 -66 -16 -125 -11 -103 -13 -106 -38 -111 -32 -6 -41 -1 -41 24 0 27
-24 19 -28 -8 -5 -30 26 -56 61 -50 28 4 29 3 23 -32 -3 -20 -6 -46 -6 -58 0
-54 -120 -140 -161 -115 -25 16 -39 15 -39 -3 0 -20 -44 -20 -60 0 -14 17 -9
80 10 129 8 22 13 26 24 17 39 -32 111 52 88 103 -10 23 -9 26 33 42 35 13 50
14 76 5 41 -14 51 -5 20 20 -65 53 -198 -18 -260 -140 -45 -88 -50 -190 -10
-211 11 -6 39 -12 64 -13 55 -2 67 -29 30 -63 -20 -18 -23 -29 -19 -53 6 -31
6 -31 -35 -31 -40 0 -40 0 -29 25 15 33 -8 61 -44 52 -34 -9 -117 -66 -135
-94 -21 -31 -9 -42 20 -16 34 30 79 60 105 68 l23 7 -20 -41 c-34 -65 -24 -76
38 -45 25 13 47 15 97 9 51 -5 70 -3 89 9 35 23 34 49 -1 36 -14 -6 -36 -10
-50 -10 -20 0 -24 5 -24 30 0 33 11 38 30 15 7 -8 19 -15 27 -15 15 0 15 7 -2
70 -6 21 0 17 33 -20 35 -38 41 -52 42 -90 0 -25 4 -40 9 -35 13 15 36 142 77
430 21 143 42 265 47 272 7 10 61 8 75 -2 1 -1 -4 -31 -12 -66 -27 -114 -75
-543 -68 -596 2 -13 9 -23 16 -23 14 0 72 59 119 122 30 39 77 75 77 58 0 -5
-32 -46 -70 -89 -39 -44 -66 -82 -61 -85 5 -3 32 10 61 29 66 44 83 45 42 2
-46 -47 -16 -66 47 -30 38 22 50 11 27 -27 -14 -24 -14 -30 -3 -30 8 0 22 9
32 20 24 26 42 25 41 -2 -1 -22 2 -23 69 -20 72 4 117 24 82 38 -9 3 -37 4
-61 2 -43 -3 -45 -2 -39 21 6 23 5 24 -40 18 -35 -5 -46 -3 -51 8 -3 8 -17 15
-31 15 -23 0 -25 2 -15 21 7 11 9 27 6 35 -5 13 -10 13 -39 0 l-34 -14 33 50
c34 50 44 88 24 88 -23 0 -70 -32 -99 -67 -31 -37 -30 -35 13 57 50 108 60
153 34 158 -21 4 -88 -62 -111 -111 -10 -20 -20 -37 -22 -37 -5 0 2 70 15 145
5 28 14 110 21 183 12 127 21 154 34 113 6 -21 31 -34 46 -25 5 3 9 17 9 32 0
16 8 32 20 40 16 10 19 19 14 56 l-6 44 73 -14 c127 -25 132 -24 146 16 20 58
16 201 -8 272 -59 177 -214 305 -335 278z m89 -54 c18 -8 41 -20 51 -29 17
-13 18 -18 7 -45 -28 -67 31 -148 100 -139 l37 5 16 -57 c21 -76 21 -90 -3
-84 -10 3 -22 0 -26 -7 -9 -15 13 -40 31 -33 10 4 14 -3 14 -24 0 -16 -3 -32
-6 -35 -3 -3 -31 0 -62 7 -127 30 -264 47 -389 48 -73 1 -133 4 -133 8 0 19
42 139 50 144 6 3 20 -1 32 -9 30 -21 56 -20 94 3 66 40 100 146 61 188 -25
29 -21 39 21 56 47 20 65 20 105 3z m-165 -78 c7 -7 12 -25 12 -40 0 -68 -68
-131 -116 -109 -13 6 -24 16 -24 22 0 20 94 139 110 139 3 0 11 -5 18 -12z
m299 -31 c18 -23 35 -50 38 -59 6 -15 3 -16 -25 -8 -18 5 -38 14 -46 21 -14
12 -20 89 -6 89 4 0 21 -20 39 -43z m-456 -304 c28 -5 30 -7 14 -14 -34 -13
-65 -10 -65 6 0 17 4 18 51 8z m169 -13 c0 -5 -6 -10 -14 -10 -8 0 -18 5 -21
10 -3 6 3 10 14 10 12 0 21 -4 21 -10z m100 -10 c0 -5 -11 -10 -24 -10 -14 0
-28 5 -31 10 -4 6 7 10 24 10 17 0 31 -4 31 -10z m65 -10 c8 -13 -15 -13 -35
0 -12 8 -11 10 7 10 12 0 25 -4 28 -10z m94 -16 c2 -2 -10 -4 -27 -4 -18 0
-32 5 -32 10 0 9 47 4 59 -6z m-123 -29 c17 -4 20 -10 16 -36 -4 -28 -6 -30
-17 -16 -7 9 -17 17 -24 17 -16 0 -13 -41 4 -64 8 -11 15 -27 15 -35 0 -11 -5
-9 -16 7 -10 15 -25 22 -46 22 -18 0 -36 7 -43 17 -11 15 -15 15 -29 4 -14
-12 -16 -11 -16 7 0 34 -20 36 -51 6 -39 -37 -37 -20 5 42 l34 51 74 -9 c40
-4 82 -10 94 -13z m211 9 c-3 -3 -12 -4 -19 -1 -8 3 -5 6 6 6 11 1 17 -2 13
-5z m-633 -425 c-16 -18 -44 -26 -44 -12 0 3 12 22 28 42 26 34 27 35 30 13 2
-13 -4 -32 -14 -43z m425 -116 c-20 -54 -114 -224 -117 -213 -6 17 46 141 81
192 36 53 52 62 36 21z m-264 -128 l-7 -66 -18 28 c-9 15 -24 34 -33 42 -20
16 -22 31 -4 31 6 0 23 9 37 20 14 10 26 17 28 15 2 -2 1 -33 -3 -70z"/>
<path d="M10849 5369 c-26 -50 35 -93 76 -53 20 20 15 49 -8 48 -9 -1 -17 4
-17 12 0 22 -38 16 -51 -7z"/>
<path d="M2687 5436 c-36 -23 -126 -92 -201 -152 -75 -60 -154 -122 -176 -139
-39 -30 -51 -55 -26 -55 7 0 67 41 132 92 205 159 346 258 365 258 28 0 33
-42 13 -102 -50 -152 -185 -287 -388 -388 l-111 -56 0 -184 c0 -181 0 -185
-22 -195 -36 -16 -148 -148 -169 -198 -18 -43 -23 -47 -67 -57 -72 -15 -84
-13 -104 21 -41 70 -308 239 -377 239 l-29 0 6 178 c4 97 13 211 22 252 18 92
19 100 1 100 -16 0 -32 -41 -42 -107 -8 -50 -8 -50 -131 -29 -162 29 -298 80
-356 134 -31 30 -34 51 -9 81 41 51 142 31 364 -70 112 -51 128 -56 128 -39 0
18 -113 83 -225 129 -178 73 -281 68 -320 -16 -35 -74 27 -145 176 -203 100
-38 213 -67 297 -76 49 -5 62 -10 58 -21 -4 -8 -6 -84 -6 -169 0 -121 -3 -154
-13 -154 -28 0 -96 -71 -107 -111 -19 -68 12 -153 72 -204 76 -65 260 -121
364 -113 66 6 101 29 131 87 22 42 22 42 85 47 63 4 64 3 75 -26 39 -104 223
-86 360 34 98 86 110 211 29 286 -21 19 -40 25 -91 28 l-65 4 0 113 c0 62 -3
132 -6 157 l-6 44 113 56 c229 112 399 305 416 471 5 47 2 58 -16 76 -32 32
-71 26 -144 -23z m-234 -948 c30 -15 50 -75 42 -126 -14 -92 -159 -197 -273
-197 -45 0 -57 4 -74 25 -45 56 1 163 100 230 28 19 51 43 52 52 0 11 11 20
28 24 15 3 32 7 37 9 14 5 66 -5 88 -17z m-849 -17 c10 -11 53 -40 96 -64 98
-58 198 -140 206 -171 7 -29 -18 -81 -48 -97 -32 -17 -181 -5 -253 20 -126 45
-195 113 -195 194 0 77 61 129 161 136 9 1 24 -8 33 -18z"/>
<path d="M1846 5069 c-41 -48 -34 -109 15 -134 54 -29 119 -14 166 37 33 35
38 69 13 100 -19 24 -26 27 -95 27 -70 0 -75 -1 -99 -30z m157 -18 c16 -16 2
-54 -26 -74 -74 -56 -170 10 -106 74 18 18 28 20 73 15 28 -4 55 -11 59 -15z"/>
<path d="M1993 4893 c4 -24 -1 -33 -36 -59 -23 -17 -54 -39 -69 -48 l-27 -18
6 74 c3 40 3 71 0 68 -3 -3 -26 -99 -52 -212 -25 -114 -48 -214 -51 -221 -3
-9 13 -28 43 -50 51 -36 165 -97 184 -97 22 0 189 152 189 172 0 38 -170 418
-186 418 -4 0 -4 -12 -1 -27z m31 -89 c4 -15 6 -28 4 -29 -2 -2 -45 -23 -96
-47 -55 -26 -90 -38 -87 -30 3 7 5 22 5 32 0 11 11 22 28 28 16 5 51 24 78 41
27 17 52 31 55 31 4 0 10 -12 13 -26z m26 -68 c0 -7 -49 -50 -109 -95 -169
-125 -153 -129 37 -10 l92 58 15 -36 c8 -20 14 -37 13 -38 -38 -21 -162 -110
-195 -139 l-44 -39 -36 17 c-29 14 -34 21 -29 39 4 12 14 53 24 91 l17 69 75
34 c41 18 86 40 100 47 33 18 40 19 40 2z m89 -230 c0 -6 -33 -39 -74 -74
l-73 -63 -56 28 c-31 15 -56 30 -56 33 1 3 54 37 118 76 l117 72 12 -30 c7
-17 13 -35 12 -42z"/>
<path d="M10582 4723 c2 -10 10 -18 18 -18 22 0 18 29 -3 33 -14 3 -18 -1 -15
-15z"/>
<path d="M10520 4651 c-21 -40 0 -59 25 -24 13 17 14 17 34 -1 19 -17 21 -17
27 -2 16 41 -65 66 -86 27z"/>
<path d="M7392 4314 c-12 -8 -22 -24 -22 -36 0 -20 -3 -21 -105 -14 -79 6
-105 4 -105 -5 0 -9 -37 -11 -149 -7 -148 5 -180 1 -167 -21 5 -7 58 -11 157
-11 116 0 157 -4 180 -15 33 -18 51 -13 42 11 -5 14 7 16 103 13 94 -4 109 -2
112 12 2 10 -6 19 -19 22 -11 3 -18 10 -14 16 11 20 41 12 70 -19 32 -34 45
-38 45 -14 0 22 -64 84 -87 84 -10 0 -29 -7 -41 -16z"/>
<path d="M9490 4224 c-47 -27 -120 -92 -120 -107 0 -5 16 5 35 22 40 35 135
86 135 73 0 -5 -9 -21 -20 -35 -28 -35 -52 -95 -41 -101 5 -3 39 21 75 54 60
54 86 71 86 54 0 -3 -12 -20 -26 -36 -38 -46 -17 -58 46 -28 46 21 52 22 66 8
14 -14 23 -13 94 8 58 16 88 20 114 14 24 -5 41 -4 52 5 31 22 -103 30 -172
10 -43 -12 -59 -13 -70 -4 -7 6 -27 9 -44 7 -19 -3 -29 -1 -27 6 8 20 -13 46
-37 46 -12 0 -42 -17 -66 -37 -43 -36 -44 -37 -23 -8 49 70 22 94 -57 49z"/>
<path d="M7471 4197 c-13 -13 -15 -83 -2 -92 5 -3 11 7 13 22 4 26 5 25 26
-19 12 -27 25 -48 31 -48 5 0 15 20 22 45 13 43 29 60 29 31 0 -7 6 -19 14
-25 11 -9 18 -6 34 14 23 29 32 32 32 10 0 -18 39 -35 77 -35 15 0 34 -7 43
-15 16 -14 18 -14 23 -1 8 21 -30 46 -70 46 -30 0 -63 21 -63 41 0 14 -26 11
-40 -6 -18 -22 -26 -19 -40 15 -15 37 -28 38 -41 3 -5 -16 -12 -35 -15 -43 -4
-10 -11 -3 -21 22 -16 40 -34 53 -52 35z"/>
<path d="M10345 4189 c-16 -3 -50 -7 -75 -9 -35 -1 -41 -3 -25 -10 31 -13 109
-11 130 3 23 18 9 25 -30 16z"/>
<path d="M10050 4169 c0 -5 11 -9 25 -9 14 0 25 2 25 4 0 2 -11 6 -25 8 -14 3
-25 1 -25 -3z"/>
<path d="M7312 4128 c-18 -18 -14 -46 8 -58 29 -16 81 -8 94 13 22 37 -69 78
-102 45z"/>
<path d="M8813 4133 c9 -2 25 -2 35 0 9 3 1 5 -18 5 -19 0 -27 -2 -17 -5z"/>
<path d="M9115 4120 c3 -5 19 -10 36 -10 16 0 29 5 29 10 0 6 -16 10 -36 10
-21 0 -33 -4 -29 -10z"/>
<path d="M10970 3095 c0 -84 27 -237 46 -262 12 -17 13 -16 14 7 0 44 -42 305
-51 315 -5 5 -9 -19 -9 -60z"/>
<path d="M11590 3087 c0 -92 13 -187 26 -187 11 0 14 19 13 83 -1 91 -9 129
-27 135 -8 2 -12 -8 -12 -31z"/>
<path d="M12363 3078 c-37 -41 -212 -292 -206 -298 12 -12 243 279 243 307 0
19 -14 16 -37 -9z"/>
<path d="M6669 3040 c-7 -111 27 -310 53 -310 12 0 10 20 -17 195 -17 113 -33
163 -36 115z"/>
<path d="M10449 3033 c-7 -49 44 -163 95 -212 20 -19 39 -32 42 -28 3 3 -12
34 -35 67 -22 34 -50 88 -62 121 -19 52 -37 75 -40 52z"/>
<path d="M7290 2922 c0 -71 4 -103 13 -111 22 -18 27 -2 26 78 -1 86 -9 123
-27 129 -9 3 -12 -22 -12 -96z"/>
<path d="M8047 2968 c-57 -71 -200 -278 -195 -283 2 -3 20 12 40 33 43 44 208
261 208 273 0 24 -22 14 -53 -23z"/>
<path d="M6145 2940 c-18 -30 69 -204 117 -234 33 -20 28 2 -16 67 -24 36 -51
88 -61 116 -17 53 -29 68 -40 51z"/>
<path d="M765 2764 c-181 -29 -354 -121 -491 -259 -81 -82 -132 -166 -166
-275 -20 -64 -23 -96 -23 -220 0 -161 9 -200 72 -322 79 -153 270 -305 404
-323 43 -6 43 -6 -36 37 -209 112 -330 258 -381 458 -20 78 -15 242 10 335 51
188 202 354 409 450 101 47 183 65 297 65 119 0 201 -19 310 -72 111 -53 229
-168 278 -271 100 -208 94 -476 -15 -666 -42 -74 -126 -173 -186 -221 -31 -25
-56 -52 -57 -61 0 -22 24 -41 44 -33 9 3 16 2 16 -3 0 -5 114 -65 254 -133
215 -106 255 -128 255 -147 1 -12 -9 -29 -21 -37 -49 -34 -275 -9 -402 44 -38
16 -72 27 -75 25 -10 -11 44 -54 98 -79 107 -48 331 -72 389 -42 58 30 89 101
60 138 -12 16 -273 159 -438 241 -36 17 -67 33 -69 34 -2 1 13 16 34 34 81 71
178 238 217 376 32 111 32 304 0 418 -37 127 -85 209 -178 302 -67 67 -98 89
-175 127 -52 24 -121 52 -154 61 -61 16 -226 27 -280 19z"/>
<path d="M3085 2749 c-178 -27 -344 -116 -485 -258 -132 -133 -191 -283 -193
-486 -2 -125 11 -188 59 -292 78 -173 239 -314 407 -359 58 -15 61 -3 5 22
-192 86 -355 269 -403 454 -39 146 -13 350 62 492 60 116 209 246 356 313 263
121 576 67 777 -134 73 -74 125 -169 156 -286 24 -93 25 -266 1 -355 -39 -146
-143 -307 -255 -395 -59 -47 -68 -63 -47 -84 14 -14 19 -14 53 4 61 33 163
144 215 236 91 161 129 340 107 500 -21 154 -61 255 -144 366 -139 184 -434
299 -671 262z"/>
<path d="M9840 2665 c-287 -58 -516 -247 -576 -476 -23 -88 -23 -272 -1 -359
40 -150 114 -260 224 -333 75 -50 192 -94 263 -99 39 -3 45 0 45 17 0 16 -15
23 -86 42 -217 55 -342 174 -396 376 -23 87 -23 272 1 352 43 146 154 270 319
356 266 138 649 114 832 -54 l46 -42 -11 -110 c-6 -60 -13 -251 -17 -422 l-6
-313 -53 -50 c-59 -55 -105 -79 -174 -89 -36 -5 -45 -10 -45 -26 0 -18 7 -20
76 -21 57 -1 89 -7 129 -25 l54 -25 -105 -62 c-57 -34 -110 -66 -118 -71 -11
-7 -7 -25 19 -97 18 -49 37 -91 41 -94 5 -3 82 2 171 12 90 10 168 16 174 14
11 -4 95 -149 121 -210 7 -15 13 -47 13 -70 0 -75 -127 -511 -154 -528 -20
-13 -81 -9 -104 8 -16 11 -22 25 -22 50 0 56 29 183 61 264 16 41 29 78 29 83
0 4 -12 12 -27 18 -20 8 -49 6 -113 -7 -77 -15 -91 -15 -142 -2 -67 17 -76 9
-18 -17 22 -10 40 -21 40 -25 0 -3 -16 -45 -35 -93 -19 -48 -46 -131 -60 -185
-17 -66 -31 -103 -46 -114 -26 -22 -33 -22 -53 -3 -35 35 -49 187 -32 348 l8
78 69 55 68 56 -13 31 c-8 18 -48 109 -91 203 l-77 171 26 26 c39 39 36 89 -8
133 -35 35 -80 45 -89 20 -7 -18 0 -24 40 -41 64 -27 47 -110 -21 -103 -44 4
-64 44 -50 97 9 31 8 41 -1 41 -34 0 -46 -103 -17 -141 18 -23 17 -27 -8 -119
l-27 -94 -31 43 c-18 24 -32 50 -32 56 0 7 -6 18 -14 24 -11 9 -30 0 -91 -40
-75 -50 -149 -118 -252 -232 -44 -49 -56 -57 -87 -57 -49 0 -64 35 -42 95 24
62 168 248 283 366 57 58 103 111 103 116 0 6 -8 14 -17 18 -36 13 -338 -327
-403 -454 -33 -65 -30 -128 6 -165 20 -20 37 -26 68 -26 54 0 87 23 166 117
64 76 147 150 208 186 l30 17 46 -65 46 -66 -16 -64 c-9 -36 -14 -76 -10 -89
3 -14 40 -55 82 -91 60 -52 81 -65 99 -61 22 6 22 5 13 -47 -16 -83 -5 -285
17 -330 23 -48 56 -71 91 -63 45 12 69 50 96 154 24 90 78 241 96 268 4 7 43
13 88 15 l81 4 -23 -61 c-27 -73 -54 -198 -54 -254 0 -31 6 -47 27 -68 15 -15
27 -29 26 -32 -1 -3 9 -10 23 -17 19 -9 24 -8 24 2 0 7 18 15 42 18 27 4 49
14 60 27 36 45 160 470 162 557 1 45 -7 67 -57 163 -49 94 -55 111 -41 117 11
4 25 -4 43 -25 31 -38 103 -71 151 -72 66 0 111 20 165 74 l52 52 399 22 c386
22 720 46 854 60 61 7 65 9 64 32 -1 14 2 27 6 30 5 3 10 37 11 75 l4 70 -50
7 c-30 4 -89 27 -148 57 l-99 51 -4 458 c-2 251 -7 502 -11 557 l-8 100 -50 2
c-27 1 -124 9 -215 18 -366 36 -882 30 -1189 -15 -96 -14 -129 -15 -143 -6
-25 15 -38 -5 -38 -61 0 -24 -2 -43 -5 -43 -3 0 -32 18 -64 40 -120 82 -262
121 -438 119 -59 0 -137 -7 -173 -14z m2025 -69 c77 -9 163 -20 190 -24 l50
-7 6 -60 c11 -99 23 -804 15 -886 -7 -69 -9 -76 -27 -72 -58 16 -1240 -83
-1507 -126 -43 -7 -55 -5 -59 6 -11 28 6 801 21 972 9 96 17 176 19 178 4 3
294 28 432 37 147 9 726 -3 860 -18z m-1383 -1136 c1 -33 0 -60 -3 -60 -4 0
-23 7 -42 15 -20 8 -49 15 -64 15 -25 0 -24 2 18 28 24 16 50 36 58 45 23 28
29 20 33 -43z m1643 30 c3 -5 12 -10 20 -10 21 0 156 -84 147 -91 -11 -10
-424 -40 -1007 -73 -180 -10 -222 -10 -233 1 -11 11 -5 13 37 13 52 0 68 13
30 25 -29 9 -109 -4 -126 -20 -17 -18 -17 -23 5 -28 18 -4 -11 -7 -318 -33
-102 -8 -214 -19 -250 -24 -105 -15 -107 -13 -29 38 146 95 113 88 529 121
206 17 508 40 670 51 289 20 498 36 512 39 4 0 10 -3 13 -9z m295 -176 c0 -19
5 -44 10 -55 6 -10 7 -19 3 -19 -4 0 -46 -4 -93 -10 -186 -21 -440 -38 -955
-65 -350 -19 -647 -40 -852 -61 -84 -8 -165 -16 -179 -17 -24 -2 -30 4 -51 56
-17 42 -21 63 -13 71 6 8 51 15 117 19 60 3 207 13 328 21 121 8 326 20 455
26 610 27 1099 56 1109 66 2 2 31 4 63 4 l58 0 0 -36z m-2394 -148 c8 -6 31
-76 26 -76 -4 0 -25 -16 -47 -36 l-40 -36 50 27 c46 24 50 25 62 9 7 -10 13
-23 12 -28 0 -12 -159 -118 -159 -107 0 3 9 53 21 111 11 58 23 115 25 128 4
19 9 22 27 16 12 -3 23 -7 23 -8z m1018 -87 c-34 -38 -73 -51 -133 -47 -51 4
-119 33 -107 46 6 5 141 18 215 21 l44 1 -19 -21z m-894 -181 c23 -51 44 -98
47 -104 3 -9 -138 -134 -153 -134 -12 0 -133 106 -139 122 -3 9 -1 36 5 60 11
40 18 47 98 95 48 29 90 52 93 53 3 0 25 -42 49 -92z"/>
<path d="M10606 2518 c-14 -71 -18 -639 -7 -815 12 -167 21 -214 39 -187 20
30 1317 144 1356 119 26 -16 42 9 22 36 -14 21 -16 71 -16 421 0 219 -4 398
-8 398 -8 0 -22 -444 -22 -701 l0 -116 -132 -7 c-275 -14 -812 -66 -1078 -104
l-118 -17 -6 50 c-20 180 -28 400 -23 663 3 160 4 292 2 292 -1 0 -6 -15 -9
-32z"/>
<path d="M11105 2529 c-193 -8 -438 -28 -445 -36 -3 -3 90 -2 205 2 116 5 422
9 680 10 272 1 470 6 470 11 0 5 -29 12 -65 15 -88 9 -634 8 -845 -2z"/>
<path d="M12105 1472 c-13 -13 -3 -22 25 -22 17 0 30 4 30 9 0 10 -47 21 -55
13z"/>
<path d="M11697 1444 c-13 -13 5 -24 39 -24 24 0 34 4 32 13 -5 13 -60 22 -71
11z"/>
<path d="M11457 1434 c-17 -17 -3 -24 49 -24 40 0 55 4 52 13 -5 13 -89 22
-101 11z"/>
<path d="M12019 1433 c-1 -5 -1 -11 0 -15 0 -5 -8 -8 -20 -8 -27 0 -19 -24 9
-28 13 -2 22 2 22 10 0 8 13 13 35 14 39 1 50 7 40 23 -7 12 -84 15 -86 4z"/>
<path d="M11288 1423 c-47 -5 -49 -19 -5 -27 35 -7 97 9 97 25 0 9 -20 9 -92
2z"/>
<path d="M12175 1420 c3 -5 13 -10 21 -10 8 0 14 5 14 10 0 6 -9 10 -21 10
-11 0 -17 -4 -14 -10z"/>
<path d="M11108 1393 c-16 -2 -28 -9 -28 -14 0 -15 83 -6 88 9 4 12 -7 13 -60
5z"/>
<path d="M11592 1393 c-26 -5 -25 -26 2 -31 29 -6 66 7 66 23 0 15 -20 17 -68
8z"/>
<path d="M11785 1391 c-20 -4 -26 -9 -17 -14 14 -10 52 0 52 14 0 5 -1 8 -2 8
-2 -1 -16 -4 -33 -8z"/>
<path d="M10915 1383 c-16 -2 -37 -6 -45 -9 -13 -4 -13 -6 0 -14 32 -21 120
-5 120 20 0 10 -18 11 -75 3z"/>
<path d="M11383 1373 c-28 -11 -10 -24 29 -21 51 4 66 28 16 27 -18 0 -39 -3
-45 -6z"/>
<path d="M10670 1353 c-8 -4 -20 -12 -27 -18 -6 -7 -30 -15 -52 -19 -23 -3
-41 -11 -41 -17 0 -14 92 -5 185 16 36 9 61 11 63 5 6 -15 68 -23 91 -11 40
22 24 34 -33 27 -43 -5 -55 -3 -60 9 -4 11 -20 15 -58 14 -29 0 -60 -3 -68 -6z"/>
<path d="M11193 1353 c-25 -10 -12 -23 22 -23 36 0 47 13 19 24 -18 7 -23 7
-41 -1z"/>
<path d="M10520 1195 c0 -9 5 -15 11 -13 6 2 11 8 11 13 0 5 -5 11 -11 13 -6
2 -11 -4 -11 -13z"/>
<path d="M10417 1194 c-15 -15 -7 -45 11 -42 9 2 17 12 17 22 0 20 -16 31 -28
20z"/>
<path d="M10045 851 c-58 -37 -118 -92 -99 -90 19 1 198 104 202 117 8 24 -44
11 -103 -27z"/>
<path d="M5578 2580 c-187 -30 -348 -111 -470 -237 -123 -127 -162 -230 -163
-423 0 -141 12 -200 61 -308 73 -161 241 -279 435 -307 31 -5 49 -3 54 4 12
21 -13 37 -81 51 -157 31 -302 140 -365 273 -75 161 -78 390 -7 537 47 98 176
223 288 277 117 58 214 83 345 90 185 10 341 -33 467 -128 66 -49 68 -52 63
-87 -10 -73 -24 -342 -31 -577 -6 -228 -8 -241 -29 -270 -34 -45 -126 -96
-187 -104 -45 -5 -53 -9 -56 -28 -3 -22 0 -23 70 -24 51 0 91 -7 132 -23 l60
-22 -112 -68 c-61 -37 -114 -71 -117 -76 -6 -10 41 -151 59 -175 10 -13 25
-13 141 -1 72 8 149 16 173 17 l42 3 62 -109 c43 -77 63 -123 65 -155 5 -51
-32 -205 -100 -413 l-43 -132 -47 -3 c-71 -5 -87 8 -87 71 0 66 21 155 61 258
26 67 29 83 18 91 -13 9 -65 6 -176 -8 -31 -4 -72 -2 -99 5 -61 15 -66 8 -14
-19 24 -12 39 -26 36 -33 -33 -75 -71 -186 -92 -265 -27 -101 -45 -132 -75
-132 -27 0 -47 37 -58 110 -14 83 -14 133 0 242 l12 88 63 51 c35 28 64 56 64
63 0 7 -39 100 -87 207 l-88 194 28 27 c31 30 35 64 11 109 -19 37 -79 66
-100 48 -22 -18 -17 -27 21 -43 47 -20 65 -58 40 -86 -22 -24 -68 -26 -90 -3
-14 13 -16 28 -11 70 7 57 -3 69 -22 28 -17 -36 -15 -97 4 -123 14 -20 13 -30
-8 -112 -12 -50 -26 -90 -29 -90 -9 0 -55 71 -63 98 -10 30 -29 28 -84 -10
-102 -69 -167 -126 -229 -201 -90 -109 -147 -133 -175 -73 -9 20 -8 34 5 68
25 65 167 250 285 370 99 101 114 128 73 128 -25 0 -201 -185 -296 -311 -127
-169 -150 -245 -94 -305 58 -62 132 -35 231 83 64 77 143 148 217 195 l28 18
32 -50 c18 -28 38 -56 46 -63 11 -12 11 -25 -2 -84 -9 -39 -13 -82 -10 -95 8
-32 145 -148 175 -148 12 0 22 -3 22 -7 0 -5 -5 -48 -10 -96 -15 -148 10 -287
59 -324 26 -20 70 -15 95 11 13 13 32 50 41 82 44 149 59 194 87 261 l30 73
79 0 c43 0 79 -2 79 -5 0 -2 -9 -29 -20 -58 -40 -106 -61 -256 -44 -302 10
-25 59 -45 114 -45 40 0 56 5 74 23 40 40 166 468 166 565 0 44 -9 69 -55 158
-30 59 -55 108 -55 110 0 14 41 -1 61 -22 39 -42 92 -64 154 -64 68 0 118 23
168 80 l37 41 168 9 c788 47 1132 72 1153 85 5 4 7 15 4 25 -3 10 -1 21 5 25
5 3 10 40 10 81 l0 74 -41 0 c-28 0 -73 16 -150 53 l-110 52 6 200 c5 193 -10
855 -21 904 -4 20 -9 22 -34 17 -16 -3 -92 1 -167 9 -456 47 -984 41 -1307
-16 -45 -7 -70 -8 -84 0 -24 13 -42 -3 -42 -39 0 -14 -3 -35 -6 -47 -6 -21 -7
-20 -52 14 -57 44 -146 85 -232 107 -77 20 -271 29 -352 16z m1942 -74 c134
-14 281 -34 287 -40 1 -1 8 -152 14 -336 13 -377 5 -685 -16 -676 -44 16
-1226 -82 -1504 -125 -35 -5 -66 -7 -70 -4 -12 13 -3 656 13 870 9 121 19 236
22 256 l5 36 157 13 c394 32 802 34 1092 6z m-1340 -1141 l0 -66 -28 15 c-15
8 -45 18 -66 22 l-39 7 29 15 c16 8 45 28 64 44 19 15 36 28 37 28 2 0 3 -29
3 -65z m1639 17 c-21 -4 -25 -17 -9 -27 19 -12 49 5 42 23 -6 16 -4 16 18 1
14 -9 50 -31 80 -50 l55 -34 -60 -7 c-269 -29 -1176 -81 -1189 -68 -7 7 0 10
21 10 37 0 63 9 63 21 0 5 -29 9 -65 9 -52 0 -70 -4 -87 -20 -19 -18 -20 -20
-4 -20 9 0 14 -4 11 -10 -3 -5 -29 -10 -56 -10 -68 0 -392 -28 -509 -44 -52
-8 -96 -12 -98 -11 -5 4 167 115 177 115 5 0 14 7 21 15 8 9 30 15 59 15 26 0
150 9 276 20 325 28 717 57 945 70 107 7 220 15 250 19 33 4 60 2 66 -4 9 -7
7 -11 -7 -13z m285 -128 c11 -4 16 -19 16 -43 0 -20 5 -42 11 -48 8 -8 6 -12
-7 -16 -48 -14 -499 -48 -969 -72 -476 -25 -859 -53 -1081 -81 l-51 -6 -23 62
c-23 60 -23 63 -5 76 10 7 21 11 25 9 4 -3 88 2 186 10 220 18 633 41 979 55
268 11 653 35 785 49 104 11 116 12 134 5z m-2365 -215 c11 -38 11 -42 -9 -56
-12 -8 -33 -26 -48 -40 l-27 -24 25 12 c14 6 38 21 53 32 16 10 30 18 31 16 9
-10 27 -51 24 -53 -13 -11 -158 -106 -161 -106 -2 0 7 46 20 103 12 56 23 114
23 130 0 23 4 27 28 27 25 0 30 -5 41 -41z m997 -58 c-39 -40 -103 -57 -159
-42 -23 7 -53 20 -66 31 -24 18 -24 18 85 25 60 3 114 8 119 10 6 2 19 4 29 4
17 1 16 -2 -8 -28z m-919 -108 c6 -16 27 -63 46 -105 l36 -77 -78 -65 -79 -65
-71 61 c-72 61 -76 70 -64 128 5 28 20 42 97 91 50 32 93 59 96 59 3 0 11 -12
17 -27z"/>
<path d="M6306 2436 c-3 -13 -10 -119 -16 -235 -10 -201 -2 -542 16 -719 6
-59 9 -63 28 -57 101 31 1258 135 1349 121 32 -5 37 -4 37 13 0 11 -4 23 -10
26 -6 4 -10 150 -10 405 0 395 -11 527 -23 282 -4 -70 -7 -254 -7 -408 l0
-281 -102 -7 c-396 -26 -842 -69 -1092 -105 -72 -11 -133 -18 -135 -16 -2 2
-10 77 -18 167 -10 115 -13 263 -11 501 2 185 2 337 2 337 -1 0 -5 -11 -8 -24z"/>
<path d="M6920 2439 c-252 -8 -520 -27 -559 -40 -18 -6 -7 -7 34 -4 33 3 342
8 688 11 476 5 627 10 627 19 0 9 -58 14 -212 18 -228 8 -240 7 -578 -4z"/>
<path d="M7183 1343 c-59 -7 -33 -33 32 -33 19 0 37 5 41 11 7 12 -14 30 -31
27 -5 -1 -25 -3 -42 -5z"/>
<path d="M7390 1340 c0 -5 18 -10 40 -10 22 0 40 5 40 10 0 6 -18 10 -40 10
-22 0 -40 -4 -40 -10z"/>
<path d="M7721 1341 c-7 -5 -10 -14 -6 -21 5 -9 2 -10 -14 -5 -15 4 -21 2 -21
-8 0 -22 32 -31 46 -13 6 9 22 16 35 16 13 0 30 4 38 9 11 7 10 11 -7 20 -25
13 -52 14 -71 2z"/>
<path d="M7000 1331 c-54 -7 -59 -25 -9 -29 41 -3 93 14 84 28 -3 5 -12 9 -18
8 -7 0 -32 -4 -57 -7z"/>
<path d="M7872 1328 c5 -15 28 -18 29 -3 0 6 -7 12 -17 13 -10 3 -15 -1 -12
-10z"/>
<path d="M6818 1303 c-21 -2 -38 -8 -38 -13 0 -14 49 -21 70 -10 19 10 28 32
13 28 -5 -1 -25 -3 -45 -5z"/>
<path d="M7301 1301 c-32 -9 -37 -27 -10 -34 28 -8 69 9 69 28 0 16 -18 18
-59 6z"/>
<path d="M6611 1288 c-40 -7 -50 -13 -42 -21 25 -25 121 -5 121 24 0 10 -6 10
-79 -3z"/>
<path d="M7460 1290 c0 -5 11 -10 24 -10 14 0 28 5 31 10 4 6 -7 10 -24 10
-17 0 -31 -4 -31 -10z"/>
<path d="M7087 1283 c-21 -5 -18 -27 5 -31 20 -4 68 15 68 28 0 10 -39 12 -73
3z"/>
<path d="M6380 1261 c-19 -4 -34 -12 -33 -18 1 -6 -16 -13 -39 -16 -37 -5 -68
-21 -57 -31 3 -3 54 4 207 31 37 6 51 21 31 34 -16 10 -56 10 -109 0z"/>
<path d="M6875 1250 c-7 -11 39 -25 54 -15 6 3 11 10 11 16 0 12 -57 12 -65
-1z"/>
<path d="M6537 1243 c-24 -3 -37 -9 -34 -16 5 -16 75 -21 93 -7 15 13 10 31
-9 28 -7 -1 -29 -3 -50 -5z"/>
<path d="M6216 1112 c-3 -6 -1 -14 5 -17 15 -10 25 3 12 16 -7 7 -13 7 -17 1z"/>
<path d="M6105 1090 c-4 -7 -3 -16 3 -22 14 -14 45 -2 40 15 -6 16 -34 21 -43
7z"/>
<path d="M5754 764 c-60 -36 -117 -84 -110 -92 9 -9 196 100 196 114 0 22 -22
17 -86 -22z"/>
<path d="M12545 2455 c-93 -14 -203 -44 -211 -56 -7 -13 29 -11 121 5 44 8
123 18 177 22 103 7 134 17 108 34 -20 13 -96 11 -195 -5z"/>
<path d="M8203 2355 c-90 -16 -173 -44 -173 -57 0 -6 10 -8 23 -4 25 7 205 31
316 43 45 5 76 13 79 21 5 16 -147 15 -245 -3z"/>
<path d="M10225 2311 c-40 -10 -66 -25 -89 -50 -26 -29 -14 -37 33 -21 28 9
63 11 114 6 62 -6 76 -4 81 9 7 19 -27 55 -51 55 -10 0 -27 2 -38 4 -11 3 -33
1 -50 -3z"/>
<path d="M9671 2260 c-56 -13 -86 -42 -87 -83 l-1 -36 29 20 c37 27 99 35 139
19 26 -11 32 -11 40 1 13 20 11 25 -13 53 -27 29 -60 38 -107 26z"/>
<path d="M1144 2250 c-12 -5 -25 -13 -28 -19 -4 -6 -13 -8 -21 -5 -7 3 -23 -4
-34 -15 -25 -25 -28 -79 -6 -121 61 -118 243 -11 191 113 -9 23 -25 41 -41 47
-30 12 -33 12 -61 0z m-25 -115 c10 -4 23 3 36 19 26 32 35 33 35 3 0 -33 -28
-67 -54 -67 -30 0 -44 18 -51 61 -5 30 -4 32 6 12 6 -12 19 -25 28 -28z"/>
<path d="M3485 2242 c-11 -2 -28 -11 -37 -19 -9 -8 -21 -13 -25 -10 -5 3 -20
-3 -33 -13 -49 -37 -24 -135 44 -168 37 -18 72 -8 113 33 27 27 33 40 33 78 0
68 -40 110 -95 99z m-42 -116 c14 -9 21 -6 41 19 23 29 23 29 31 7 9 -31 -18
-72 -50 -72 -31 0 -55 35 -54 80 1 34 2 34 8 6 3 -16 14 -34 24 -40z"/>
<path d="M5885 2206 c-67 -30 -87 -88 -20 -60 40 16 102 18 139 4 34 -13 58
-3 54 24 -6 42 -107 61 -173 32z"/>
<path d="M652 2195 c-15 -11 -22 -25 -20 -40 1 -12 -3 -30 -11 -38 -30 -36 19
-117 71 -117 23 0 34 9 58 47 35 55 40 111 11 137 -28 25 -82 30 -109 11z m59
-85 c-1 -14 -7 -33 -13 -43 -12 -24 -34 -8 -41 31 -6 30 7 43 38 40 15 -2 19
-9 16 -28z"/>
<path d="M2992 2164 c-14 -10 -22 -26 -22 -44 0 -16 -4 -32 -10 -35 -28 -17 3
-94 45 -113 36 -17 66 2 94 61 35 73 24 115 -36 138 -33 12 -45 11 -71 -7z
m58 -73 c0 -32 -19 -73 -32 -69 -19 7 -32 69 -16 79 24 15 48 10 48 -10z"/>
<path d="M5325 2147 c-32 -18 -40 -28 -41 -53 -1 -17 -4 -36 -8 -43 -4 -6 9 0
29 14 46 30 99 41 131 26 56 -25 77 2 38 49 -21 25 -33 30 -67 30 -25 0 -58
-10 -82 -23z"/>
<path d="M10205 2074 c-16 -3 -97 -14 -180 -25 -82 -12 -211 -37 -285 -56 -74
-19 -149 -34 -167 -34 -70 3 -91 -68 -53 -175 38 -109 91 -151 247 -196 66
-19 101 -23 228 -23 282 1 376 59 424 265 12 48 21 100 21 115 0 41 -27 89
-61 109 -31 18 -117 28 -174 20z m128 -45 c30 -8 42 -18 53 -45 8 -19 12 -39
9 -44 -4 -6 -77 -10 -171 -10 -201 0 -367 -14 -539 -45 -71 -13 -131 -22 -133
-20 -8 8 11 46 28 55 44 24 459 99 625 113 80 7 91 7 128 -4z m53 -142 c2 -1
1 -12 -2 -23 -5 -19 -11 -20 -85 -16 -104 6 -186 -11 -284 -58 -84 -40 -169
-107 -180 -141 -6 -17 -12 -19 -38 -13 -62 13 -155 55 -180 82 -32 33 -62 113
-47 122 15 9 291 42 430 51 105 7 378 4 386 -4z m-30 -89 c9 -10 -14 -65 -44
-100 -32 -37 -73 -58 -147 -74 -91 -20 -316 -16 -315 5 1 13 108 91 166 120
34 17 88 37 120 46 59 14 206 16 220 3z"/>
<path d="M5845 1973 c-131 -16 -319 -50 -415 -75 -63 -17 -131 -30 -151 -29
-62 2 -95 -53 -78 -130 18 -80 61 -150 109 -181 105 -67 314 -106 470 -88 227
26 305 94 345 300 20 105 9 151 -44 187 -29 20 -45 23 -120 22 -47 -1 -99 -4
-116 -6z m220 -58 c15 -14 25 -36 25 -52 l0 -28 -213 -1 c-209 -2 -374 -17
-532 -50 -38 -7 -76 -14 -82 -14 -22 0 -14 39 10 54 32 21 366 85 572 109 17
2 67 5 113 6 76 1 85 -1 107 -24z m15 -138 c0 -23 -2 -23 -112 -24 -94 0 -125
-5 -185 -26 -99 -34 -158 -70 -222 -135 l-53 -55 -67 21 c-98 32 -128 55 -156
115 -14 28 -25 57 -25 63 0 12 78 26 250 44 149 16 163 17 373 18 l197 2 0
-23z m-21 -73 c9 -8 -33 -84 -63 -113 -69 -67 -262 -96 -428 -65 l-27 5 38 35
c85 76 202 130 311 144 50 6 159 2 169 -6z"/>
<path d="M3520 1920 c-47 -16 -123 -33 -170 -40 -47 -6 -107 -15 -133 -20 -27
-6 -115 -10 -196 -10 -138 0 -149 -1 -167 -21 -27 -30 -24 -103 7 -159 29 -54
106 -110 186 -136 42 -14 86 -19 163 -19 123 0 203 23 297 84 64 42 161 140
186 186 42 82 13 166 -56 164 -18 -1 -70 -14 -117 -29z m150 -29 c14 -27 13
-41 -4 -35 -8 3 -45 -10 -82 -29 -150 -75 -328 -117 -538 -124 -137 -6 -150
-5 -163 12 -16 23 -17 81 -1 91 7 4 48 7 93 6 96 -3 353 21 450 42 39 8 95 24
125 35 72 26 107 26 120 2z m-22 -108 c-58 -88 -158 -166 -265 -206 -48 -18
-79 -22 -178 -22 -114 0 -123 2 -187 32 -63 30 -118 72 -118 90 0 4 57 7 127
5 197 -5 393 36 583 121 30 13 57 23 59 21 2 -2 -7 -21 -21 -41z"/>
<path d="M1161 1909 c-52 -16 -146 -36 -210 -44 -64 -9 -137 -20 -163 -26 -26
-6 -114 -9 -196 -7 -166 3 -177 0 -188 -59 -23 -120 104 -235 297 -269 201
-36 406 30 557 179 104 103 128 187 65 237 -32 25 -47 24 -162 -11z m143 -25
c9 -8 16 -25 16 -38 0 -48 -94 -159 -185 -220 -48 -31 -55 -32 -55 -6 0 11
-13 34 -28 51 -34 38 -101 50 -148 27 -17 -9 -46 -13 -69 -11 -33 4 -48 -1
-81 -25 -23 -17 -50 -49 -60 -71 -11 -23 -26 -41 -35 -41 -9 0 -48 16 -88 36
-81 41 -120 84 -128 144 -9 66 0 70 156 70 228 0 485 35 616 84 52 19 70 19
89 0z m-290 -235 c19 -15 26 -29 24 -47 -3 -23 -12 -29 -62 -44 -70 -21 -209
-33 -250 -21 l-30 9 50 52 c53 55 90 67 114 37 16 -20 29 -19 37 3 4 9 11 20
17 24 21 15 74 8 100 -13z"/>
<path d="M12430 1931 c0 -28 199 -98 237 -84 22 8 15 22 -14 28 -16 3 -62 17
-103 31 -106 35 -120 38 -120 25z"/>
<path d="M8130 1837 c0 -29 195 -99 235 -83 27 10 8 24 -53 37 -31 6 -81 22
-111 35 -61 28 -71 29 -71 11z"/>
<path d="M4026 1775 c-8 -8 -41 -52 -73 -98 -70 -99 -174 -210 -251 -268 -31
-24 -69 -54 -84 -67 l-27 -25 -21 24 c-24 27 -24 26 20 -86 73 -185 101 -313
99 -464 -1 -129 -6 -143 -52 -154 -60 -14 -43 -22 51 -22 131 -1 185 -35 239
-150 35 -77 40 -178 9 -201 -30 -22 -55 -9 -126 65 -36 37 -83 79 -105 94 -86
56 -225 71 -387 41 -104 -19 -126 -34 -169 -114 -69 -129 -139 -177 -276 -187
-67 -5 -76 -4 -98 17 -31 29 -32 50 -4 50 38 0 129 60 164 109 54 72 77 155
77 270 0 54 -3 112 -7 129 -6 29 -4 31 57 61 75 37 98 55 132 106 34 49 33 80
-3 116 -36 35 -93 39 -158 9 l-43 -19 0 27 c-1 15 -7 41 -15 57 -13 29 -13 29
-14 -32 -1 -67 1 -65 -64 -75 -32 -5 -23 -23 12 -26 22 -2 66 9 118 29 68 26
89 30 116 23 27 -8 32 -15 35 -44 8 -99 -189 -199 -367 -188 -66 5 -77 8 -98
33 -27 31 -26 60 8 172 28 91 74 150 168 217 45 32 79 61 77 64 -3 3 -35 -9
-70 -27 -114 -56 -186 -158 -220 -310 -20 -90 -14 -124 27 -153 28 -20 45 -23
142 -24 l110 -1 5 -69 c7 -96 -6 -206 -31 -258 -27 -58 -78 -108 -145 -142
-30 -15 -59 -33 -65 -41 -17 -20 -2 -63 34 -96 31 -29 33 -29 117 -24 47 3
107 13 135 23 63 22 128 87 180 181 39 70 42 72 90 83 148 33 292 30 377 -8
30 -13 75 -49 124 -101 82 -85 115 -102 166 -82 65 25 76 143 24 257 -44 96
-115 156 -203 170 l-38 6 -1 136 c0 91 -6 162 -18 212 -9 41 -19 87 -22 101
-5 23 0 29 53 59 35 20 101 76 169 144 186 187 261 318 235 408 -21 69 -77
100 -115 63z m68 -37 c24 -33 20 -97 -9 -155 -33 -65 -167 -225 -247 -296 -61
-53 -154 -117 -170 -117 -4 0 -22 30 -38 68 -29 61 -30 68 -14 77 138 81 257
194 363 343 40 56 79 102 86 102 8 0 21 -10 29 -22z"/>
<path d="M835 1355 c-22 -8 -41 -15 -42 -15 -2 0 -3 -10 -3 -21 0 -20 4 -21
38 -15 102 19 119 19 141 -3 27 -27 26 -36 -4 -66 -20 -21 -34 -25 -82 -25
-80 0 -107 16 -111 63 -4 47 -19 48 -28 0 -8 -44 2 -63 47 -85 19 -10 34 -21
34 -25 0 -5 -25 -105 -55 -225 -47 -188 -52 -218 -40 -233 16 -19 182 -105
204 -105 20 0 155 149 163 179 8 33 -10 103 -58 229 -23 59 -41 115 -41 124 1
10 -8 22 -18 28 -17 9 -16 12 16 44 55 55 41 122 -32 152 -42 18 -78 17 -129
-1z m105 -204 c0 -12 -18 -31 -48 -50 -27 -17 -51 -31 -54 -31 -2 0 0 23 6 50
l10 50 43 0 c36 0 43 -3 43 -19z m35 -71 c12 -24 13 -30 2 -30 -7 0 -45 -22
-85 -49 -39 -27 -75 -52 -80 -55 -9 -5 3 73 13 82 3 4 125 78 132 81 1 1 9
-12 18 -29z m39 -96 c5 -16 -1 -24 -31 -38 -20 -10 -77 -44 -125 -77 -48 -32
-88 -58 -88 -57 1 2 7 25 14 52 12 47 15 50 112 106 100 58 105 58 118 14z
m27 -80 c5 -15 8 -27 7 -28 -31 -12 -91 -50 -163 -101 -93 -67 -104 -72 -122
-54 -18 18 -2 54 35 77 154 93 218 130 225 131 4 1 12 -11 18 -25z m25 -117
c-4 -12 -35 -53 -70 -90 l-63 -68 -57 28 c-49 24 -71 43 -48 43 4 0 57 31 117
69 89 56 112 66 118 54 5 -8 6 -24 3 -36z"/>
<path d="M3327 1326 c-58 -16 -87 -40 -69 -58 9 -9 25 -7 71 7 67 20 105 15
122 -16 9 -17 7 -26 -8 -48 -27 -36 -94 -49 -154 -30 -38 12 -44 18 -47 44 -6
48 -19 50 -27 4 -7 -39 -5 -45 19 -66 15 -13 38 -23 52 -23 23 0 25 -3 20 -27
-24 -116 -66 -395 -64 -422 3 -34 6 -36 102 -78 55 -24 105 -43 113 -43 17 0
142 157 150 189 8 31 -18 107 -82 240 -29 58 -50 111 -48 117 2 6 -6 14 -18
17 -22 6 -21 7 9 42 38 42 41 81 12 118 -12 15 -38 31 -58 37 -43 12 -35 12
-95 -4z m96 -201 c4 -9 -12 -29 -45 -55 -28 -22 -53 -39 -55 -37 -1 2 0 24 3
50 6 44 8 46 43 50 20 2 39 4 42 5 4 1 9 -5 12 -13z m36 -71 c6 -15 10 -27 9
-28 -38 -23 -67 -44 -113 -81 l-55 -45 6 42 c4 24 8 45 10 46 6 9 120 91 125
91 3 1 11 -11 18 -25z m51 -101 c0 -7 -9 -17 -19 -23 -11 -5 -63 -44 -116 -85
l-96 -75 6 37 c4 21 9 45 11 53 2 8 45 43 96 78 85 57 94 61 105 45 7 -9 13
-23 13 -30z m34 -79 c5 -15 0 -23 -16 -31 -13 -6 -67 -48 -121 -93 -102 -84
-130 -94 -135 -49 -3 23 9 35 85 91 170 126 173 127 187 82z m30 -76 c3 -13 6
-26 6 -29 0 -10 -121 -164 -128 -164 -4 0 -33 11 -64 24 l-58 23 104 74 c58
40 107 78 111 84 10 17 22 11 29 -12z"/>
<path d="M420 1296 c-123 -52 -386 -187 -403 -207 -32 -40 -14 -99 39 -124 32
-15 41 -14 172 14 75 16 164 41 197 54 33 14 61 24 62 24 1 -1 -3 -71 -9 -156
-5 -85 -8 -287 -6 -450 3 -279 4 -299 25 -343 36 -80 112 -108 153 -59 10 11
29 94 49 212 18 107 35 201 37 210 4 13 29 17 152 22 81 4 162 10 180 13 27 6
32 4 32 -13 0 -27 88 -299 116 -359 30 -63 75 -92 120 -77 58 19 60 38 20 306
-20 133 -54 360 -75 505 -21 145 -43 268 -50 275 -8 8 -14 8 -22 0 -9 -9 8
-140 65 -519 67 -442 75 -509 63 -522 -19 -18 -53 -8 -72 22 -8 13 -43 104
-78 203 -47 135 -60 184 -53 196 6 9 7 19 3 23 -3 4 -77 1 -164 -5 -87 -6
-195 -13 -240 -14 -46 -1 -83 -5 -83 -9 0 -4 9 -13 20 -21 20 -14 20 -15 -14
-211 -18 -109 -38 -202 -44 -208 -16 -16 -51 1 -70 35 -15 29 -17 77 -20 496
-2 338 0 467 9 477 6 8 8 21 5 30 -8 20 -29 15 -146 -31 -74 -29 -183 -57
-286 -72 -38 -6 -64 18 -44 42 7 8 82 51 169 96 187 98 271 147 271 160 0 14
-20 10 -80 -15z"/>
<path d="M11332 1051 c-34 -18 -142 -118 -142 -132 0 -4 -36 -33 -80 -66 -80
-58 -107 -90 -98 -115 4 -8 47 -20 114 -32 60 -10 113 -20 117 -23 4 -2 -8
-22 -28 -44 -39 -44 -45 -64 -15 -55 11 3 28 9 39 12 17 5 18 2 10 -40 -9 -50
-61 -187 -85 -224 -12 -18 -18 -20 -34 -12 -10 5 -30 10 -43 10 -24 0 -24 1
-14 45 16 67 -2 79 -51 34 -92 -86 -97 -87 -44 -10 55 78 62 101 37 121 -37
31 -139 -37 -187 -126 -30 -56 -39 -105 -20 -111 7 -3 12 4 12 17 0 31 35 95
75 135 37 36 93 70 102 61 3 -3 -21 -45 -54 -93 -79 -117 -76 -110 -54 -123
17 -8 30 -1 90 51 74 63 85 62 57 -6 -13 -30 -13 -35 -1 -35 8 0 17 5 20 10 8
14 58 13 72 -1 8 -8 8 -18 1 -35 -6 -13 -8 -27 -4 -31 24 -25 166 261 166 334
0 28 10 29 42 3 23 -18 25 -24 18 -62 -13 -71 -23 -234 -15 -257 11 -35 30
-19 27 23 -4 42 41 122 84 151 23 15 22 10 -16 -66 -54 -106 -47 -128 21 -64
51 47 82 56 39 10 -13 -14 -20 -31 -17 -39 8 -19 38 -21 56 -3 10 10 12 6 9
-17 -3 -28 -3 -28 60 -31 34 -1 62 1 62 6 0 13 -36 29 -63 29 -16 0 -26 7 -30
20 -3 12 -14 20 -26 20 -19 0 -19 1 -5 36 20 47 7 64 -33 44 -16 -8 -32 -16
-36 -18 -4 -2 9 26 29 63 44 79 37 97 -24 66 -36 -19 -69 -50 -99 -97 -7 -11
-11 -12 -8 -4 4 12 9 87 15 200 1 9 11 3 30 -19 15 -18 33 -30 39 -27 6 4 11
29 11 57 l0 49 38 0 c20 0 54 -5 76 -9 80 -19 111 21 70 92 -13 23 -49 94 -80
157 -30 63 -60 125 -66 137 -13 27 -66 53 -105 53 -15 -1 -43 -9 -61 -19z m66
-61 c-24 -48 -17 -91 19 -120 30 -24 60 -26 83 -5 15 14 20 9 53 -55 20 -39
32 -70 28 -70 -5 0 -16 -3 -24 -6 -8 -3 -22 2 -31 11 -12 13 -14 21 -5 37 15
27 6 32 -16 8 -40 -44 16 -107 72 -81 23 11 29 10 40 -5 7 -10 12 -23 10 -29
-5 -12 -11 -12 -137 5 -52 7 -113 13 -135 14 -22 1 -102 15 -177 31 -156 33
-154 28 -51 100 53 37 68 43 84 35 14 -8 27 -7 47 2 23 12 27 20 28 59 0 25 4
51 9 58 13 21 69 51 96 51 l26 0 -19 -40z m78 -16 c37 -68 38 -81 7 -87 -32
-6 -69 13 -78 42 -8 25 21 94 37 89 7 -3 23 -22 34 -44z m-210 -72 c-8 -24
-35 -37 -50 -22 -6 6 -2 18 14 35 26 28 46 20 36 -13z m115 -244 c29 -8 39
-18 47 -44 6 -19 6 -34 1 -34 -5 0 -9 4 -9 10 0 5 -9 14 -20 20 -14 8 -22 7
-32 -4 -11 -12 -15 -12 -30 1 -9 8 -35 17 -58 20 l-41 6 21 22 c22 23 52 24
121 3z"/>
<path d="M11261 756 c-9 -11 -7 -12 12 -9 14 3 29 -3 41 -16 22 -24 36 -27 36
-7 0 18 -38 46 -61 46 -9 0 -22 -6 -28 -14z"/>
<path d="M12610 996 c0 -15 74 -86 90 -86 19 0 10 30 -21 65 -31 35 -69 47
-69 21z"/>
<path d="M8310 907 c0 -16 72 -87 88 -87 23 0 12 26 -26 63 -39 38 -62 47 -62
24z"/>
<path d="M12340 870 c0 -47 80 -140 120 -140 30 0 24 13 -21 49 -22 18 -48 48
-56 67 -16 32 -43 47 -43 24z"/>
<path d="M11716 861 c-16 -26 75 -241 102 -241 17 0 15 9 -17 81 -15 35 -36
88 -45 117 -17 50 -28 62 -40 43z"/>
<path d="M8044 775 c-10 -24 30 -88 73 -119 62 -43 75 -23 19 30 -25 25 -53
58 -61 74 -17 34 -23 36 -31 15z"/>
<path d="M7075 746 c-32 -77 -43 -183 -24 -233 16 -43 29 -10 29 79 0 42 5
100 11 128 13 63 5 76 -16 26z"/>
<path d="M7414 765 c-8 -20 40 -155 73 -208 39 -61 49 -32 15 44 -16 35 -37
88 -46 116 -19 57 -33 73 -42 48z"/>
<path d="M6736 731 c-14 -21 -37 -194 -28 -203 11 -11 26 52 38 155 6 53 3 69
-10 48z"/>
<path d="M9646 635 c-9 -13 -16 -29 -16 -35 0 -18 -15 -11 -25 13 -11 25 -54
35 -66 15 -12 -18 -11 -115 1 -160 20 -71 30 -51 23 47 -4 67 -3 95 5 95 11 0
42 -88 42 -118 0 -26 25 -5 28 24 4 47 32 114 47 114 22 0 37 -38 33 -82 -4
-59 14 -57 41 4 22 49 24 51 30 28 4 -15 19 -31 39 -39 17 -8 32 -21 32 -28 0
-7 7 -13 16 -13 29 0 12 44 -23 59 -24 11 -33 21 -33 38 0 29 -26 41 -52 24
-17 -10 -22 -8 -39 13 -26 33 -62 33 -83 1z"/>
<path d="M12253 625 c-43 -18 -172 -106 -205 -140 -34 -34 -42 -58 -28 -85 8
-16 8 -20 -4 -20 -8 0 -19 -7 -24 -16 -7 -13 -10 -10 -15 15 -6 30 -38 71 -57
71 -5 0 -17 -11 -26 -25 -15 -22 -15 -31 -1 -87 8 -35 17 -70 21 -80 6 -13 -1
-17 -33 -23 -60 -10 -52 -29 9 -23 28 3 54 8 57 12 4 4 1 21 -6 39 -7 18 -20
56 -29 85 -14 48 -14 54 0 69 15 14 17 13 28 -7 6 -12 17 -51 24 -88 14 -76
36 -96 36 -32 0 25 4 39 10 35 6 -3 10 -23 10 -44 0 -37 1 -39 32 -36 36 3 50
24 21 31 -12 4 -22 20 -29 50 -10 40 -4 58 11 34 3 -5 23 -10 43 -10 54 0 142
-23 142 -37 0 -6 -5 -24 -10 -39 -10 -25 -11 -26 -30 -9 -23 21 -60 12 -60
-15 0 -12 5 -17 14 -14 7 3 16 -2 19 -10 9 -22 39 -20 71 5 19 15 26 30 26 55
0 33 1 34 40 34 39 0 40 -1 40 -33 0 -34 23 -77 42 -77 10 0 7 37 -7 86 -6 19
-2 22 43 28 88 11 144 67 128 129 -10 40 -101 133 -158 161 -58 29 -97 32
-145 11z m128 -46 c5 -8 9 -25 9 -38 0 -21 4 -23 29 -18 22 5 34 0 53 -21 39
-41 50 -69 39 -91 -16 -29 -84 -51 -157 -51 -59 0 -68 3 -86 25 -23 30 -33 31
-54 6 -13 -15 -23 -17 -47 -10 -19 5 -35 5 -43 -1 -14 -12 -54 1 -73 23 -16
20 -2 48 38 76 24 18 34 19 57 11 15 -6 40 -8 56 -5 35 8 66 51 50 67 -8 8
-19 3 -41 -20 -26 -29 -71 -44 -71 -24 0 4 30 26 68 50 60 39 72 43 116 39 26
-2 52 -11 57 -18z"/>
<path d="M12330 491 c-15 -29 -2 -51 31 -51 37 0 40 31 4 54 -23 15 -25 15
-35 -3z"/>
<path d="M9849 474 c-9 -11 -16 -52 -19 -108 l-5 -90 -34 67 c-19 37 -39 67
-46 67 -34 0 -22 -145 16 -207 30 -48 44 -28 20 28 -21 50 -34 99 -26 99 4 0
22 -34 40 -75 19 -41 39 -75 44 -75 6 0 12 50 13 123 3 125 10 126 25 3 10
-88 28 -96 37 -19 12 90 27 111 22 30 -3 -49 0 -67 9 -67 7 0 20 -11 29 -25
18 -28 47 -33 66 -10 14 17 4 39 -15 31 -23 -8 -42 35 -50 114 -4 41 -8 87 -8
103 0 25 -3 27 -39 27 -24 0 -37 -4 -33 -10 3 -5 13 -10 21 -10 18 0 18 -4 -3
-43 -17 -32 -17 -32 -21 -7 -8 72 -18 84 -43 54z"/>
<path d="M9502 428 c-18 -24 -22 -54 -9 -73 17 -22 41 -11 34 16 -3 10 1 23 8
29 16 13 9 40 -10 40 -7 0 -17 -6 -23 -12z"/>
<path d="M10346 387 c-15 -12 -76 -137 -76 -157 0 -23 18 2 48 64 32 68 57 95
48 54 -14 -60 -26 -142 -22 -146 3 -2 15 3 27 12 21 14 24 14 41 0 11 -11 24
-14 35 -9 17 8 17 8 1 12 -10 3 -21 15 -24 29 -7 27 -14 30 -32 12 -18 -18
-22 -6 -12 37 19 82 5 121 -34 92z"/>
<path d="M9355 361 c-24 -47 -28 -110 -11 -166 8 -27 14 -51 12 -52 -2 -2 -66
-13 -142 -24 -76 -11 -164 -26 -194 -34 l-55 -14 85 5 c82 5 340 40 347 48 2
1 -6 23 -17 47 -11 24 -20 62 -20 85 0 43 17 104 29 104 4 0 13 -28 19 -62 27
-135 46 -162 57 -80 10 77 11 79 23 49 7 -16 12 -51 12 -78 0 -67 15 -62 29
10 6 33 21 70 32 83 l19 23 -6 -30 c-4 -16 -11 -40 -15 -53 -15 -39 -11 -55
11 -49 10 3 24 -1 31 -9 29 -36 39 -3 10 35 -16 21 -17 28 -5 80 8 33 10 59 4
65 -12 12 -58 -19 -78 -54 l-16 -28 -18 39 c-23 52 -38 49 -38 -6 0 -66 -15
-55 -31 23 -12 56 -18 68 -36 70 -16 2 -26 -5 -38 -27z"/>
<path d="M12478 305 c-37 -25 -65 -62 -54 -72 2 -3 21 7 40 22 l36 27 -6 -31
c-8 -39 6 -40 61 -6 50 31 55 31 55 0 0 -14 6 -28 14 -31 19 -7 158 14 170 26
19 19 -5 23 -73 13 l-70 -9 -3 30 c-2 24 -9 32 -27 34 -13 2 -28 -1 -34 -7
-18 -18 -37 -13 -37 9 0 28 -27 26 -72 -5z"/>
<path d="M11700 259 l-25 -21 27 6 c15 4 37 1 47 -6 28 -17 38 -2 16 22 -23
25 -34 25 -65 -1z"/>
<path d="M11363 170 c-26 -10 -50 -45 -63 -89 -9 -34 4 -44 15 -11 9 30 55 80
72 80 12 0 13 -8 8 -41 l-7 -41 32 23 32 24 15 -22 c12 -19 19 -20 41 -12 28
11 102 -6 102 -23 0 -4 5 -8 10 -8 6 0 10 11 10 25 0 21 -5 25 -29 25 -16 0
-31 5 -33 11 -2 7 -12 7 -31 0 -39 -15 -57 -14 -57 4 0 19 -21 19 -46 0 -28
-21 -35 -18 -23 12 18 47 0 62 -48 43z"/>
<path d="M9347 67 c-6 -43 1 -52 25 -30 11 10 30 16 42 14 21 -3 21 -3 2 18
-17 19 -21 20 -28 6 -11 -19 -29 -20 -22 -1 3 8 1 17 -4 20 -5 3 -12 -9 -15
-27z"/>
<path d="M9556 65 c4 -8 13 -15 21 -15 13 0 13 3 3 15 -7 8 -16 15 -21 15 -5
0 -6 -7 -3 -15z"/>
<path d="M11985 66 c-19 -14 -17 -15 23 -16 31 0 42 4 40 13 -7 18 -40 20 -63
3z"/>
<path d="M9307 63 c-14 -13 -7 -53 8 -53 12 0 14 7 9 28 -8 33 -9 34 -17 25z"/>
<path d="M9247 54 c-11 -11 -8 -54 3 -54 6 0 13 6 16 14 7 17 -9 50 -19 40z"/>
<path d="M12182 38 c5 -15 28 -18 29 -3 0 6 -7 12 -17 13 -10 3 -15 -1 -12
-10z"/>
</g>
</svg>
